<?xml version="1.0" standalone="no"?>
<!DOCTYPE svg PUBLIC "-//W3C//DTD SVG 20010904//EN"
 "http://www.w3.org/TR/2001/REC-SVG-20010904/DTD/svg10.dtd">
<svg version="1.0" xmlns="http://www.w3.org/2000/svg"
 width="192.000000pt" height="192.000000pt" viewBox="0 0 192.000000 192.000000"
 preserveAspectRatio="xMidYMid meet">
<metadata>
Created by potrace 1.16, written by Peter Selinger 2001-2019
</metadata>
<g transform="translate(0.000000,192.000000) scale(0.100000,-0.100000)"
fill="#000000" stroke="none">
<path d="M90 1903 c-30 -21 -52 -43 -73 -73 -16 -23 -17 -92 -17 -870 0 -916
-3 -857 50 -910 53 -53 -6 -50 910 -50 916 0 857 -3 910 50 53 53 50 -6 50
910 0 916 3 857 -50 910 -53 53 6 50 -910 50 -778 0 -847 -1 -870 -17z m133
-808 l13 -26 24 26 c44 47 120 23 120 -37 0 -17 2 -17 24 -3 36 24 78 16 94
-18 12 -24 11 -40 -3 -108 -8 -44 -13 -84 -9 -90 10 -16 43 20 69 76 25 53 66
85 107 85 77 0 54 -96 -29 -116 -28 -7 -31 -40 -4 -49 51 -16 100 22 120 95 7
25 20 53 29 63 14 15 17 16 32 2 13 -12 22 -13 49 -2 30 11 34 10 51 -11 16
-19 23 -21 39 -13 28 16 67 13 81 -4 9 -11 11 -33 6 -78 l-8 -62 26 24 c14 14
26 31 26 38 0 28 32 74 63 93 41 25 69 25 92 0 26 -29 8 -62 -49 -89 -48 -22
-53 -30 -34 -49 18 -18 52 -14 89 11 26 18 35 32 41 66 10 60 35 96 54 80 17
-14 18 -59 3 -113 -16 -59 4 -71 42 -26 19 21 32 30 35 23 11 -26 46 -63 60
-63 21 0 17 11 -18 47 -39 40 -43 87 -9 115 26 20 81 24 99 6 18 -18 14 -53
-8 -73 -18 -16 -18 -19 -3 -41 20 -32 10 -72 -23 -84 -33 -13 -80 -13 -105 1
-14 7 -30 7 -53 -1 -39 -12 -63 -6 -71 21 -6 18 -7 18 -35 -2 -42 -32 -114
-37 -150 -11 -23 18 -30 19 -39 8 -18 -21 -61 -29 -78 -14 -12 10 -14 25 -9
75 5 52 4 63 -8 63 -25 0 -46 -42 -46 -91 0 -34 -5 -49 -16 -53 -40 -16 -44
-9 -44 79 0 93 -8 104 -41 53 -14 -24 -19 -45 -16 -75 2 -23 0 -46 -6 -52 -18
-18 -48 -13 -54 9 -3 11 -6 20 -7 20 -1 0 -19 -9 -41 -20 -49 -25 -96 -26
-125 -2 -22 18 -24 18 -59 0 -83 -42 -110 -5 -76 106 19 63 19 106 1 106 -31
0 -86 -108 -86 -169 0 -40 -14 -61 -42 -61 -24 0 -23 43 2 139 25 92 25 130 3
138 -43 17 -112 -128 -99 -208 7 -42 -11 -69 -45 -69 -31 0 -34 27 -16 135 26
153 23 170 -23 145 -30 -16 -34 7 -6 35 34 34 81 34 99 0z m1471 9 c11 -28 6
-59 -14 -89 -28 -42 -25 -47 14 -28 73 34 108 -5 89 -99 -11 -54 -3 -61 34
-26 29 27 42 15 23 -20 -20 -35 -74 -65 -101 -57 -19 6 -21 13 -17 83 3 71 2
77 -17 77 -25 0 -55 -57 -55 -105 0 -40 -14 -60 -42 -60 -20 0 -22 12 -19 95
3 64 16 115 48 188 26 57 45 71 57 41z"/>
</g>
</svg>
